HIERARCHY
ROOT Hips
{
    OFFSET   0.000000   0.000000   0.000000
    CHANNELS 6 Xposition Yposition Zposition Zrotation Xrotation Yrotation
    JOINT Chest
    {
        OFFSET   0.000000   8.007230   0.000000
        CHANNELS 3 Zrotation Xrotation Yrotation
        JOINT Chest2
        {
            OFFSET   0.000000  22.077100   0.000000
            CHANNELS 3 Zrotation Xrotation Yrotation
            JOINT Neck
            {
                OFFSET   0.000000  23.254800   0.000000
                CHANNELS 3 Zrotation Xrotation Yrotation
                JOINT Head
                {
                    OFFSET   0.000010  14.370000   1.956600
                    CHANNELS 3 Zrotation Xrotation Yrotation
                    End Site
                    {
                        OFFSET   0.000000  19.566000   0.000000
                    }
                }
            }
            JOINT LeftCollar
            {
                OFFSET   3.911900  19.017000  -0.467062
                CHANNELS 3 Zrotation Xrotation Yrotation
                JOINT LeftShoulder
                {
                    OFFSET  10.383700   0.000000   0.000000
                    CHANNELS 3 Zrotation Xrotation Yrotation
                    JOINT LeftElbow
                    {
                        OFFSET  26.662100   0.001193   0.000835
                        CHANNELS 3 Zrotation Xrotation Yrotation
                        JOINT LeftWrist
                        {
                            OFFSET  28.869000  -0.000058  -0.000075
                            CHANNELS 3 Zrotation Xrotation Yrotation
                            JOINT LeftFinger0
                            {
                                OFFSET   2.044660  -2.323460   3.252850
                                CHANNELS 3 Zrotation Xrotation Yrotation
                                JOINT LeftFinger01
                                {
                                    OFFSET   3.088130   0.000000   0.000000
                                    CHANNELS 3 Zrotation Xrotation Yrotation
                                    JOINT LeftFinger02
                                    {
                                        OFFSET   2.639450   0.000000   0.000000
                                        CHANNELS 3 Zrotation Xrotation Yrotation
                                        End Site
                                        {
                                            OFFSET   2.582190   0.000000   0.000000
                                        }
                                    }
                                }
                            }
                            JOINT LeftFinger1
                            {
                                OFFSET   8.364480   0.000000   3.252850
                                CHANNELS 3 Zrotation Xrotation Yrotation
                                JOINT LeftFinger11
                                {
                                    OFFSET   4.646920   0.000000   0.000000
                                    CHANNELS 3 Zrotation Xrotation Yrotation
                                    JOINT LeftFinger12
                                    {
                                        OFFSET   2.323460   0.000000   0.000000
                                        CHANNELS 3 Zrotation Xrotation Yrotation
                                        End Site
                                        {
                                            OFFSET   2.273050   0.000000   0.000000
                                        }
                                    }
                                }
                            }
                            JOINT LeftFinger2
                            {
                                OFFSET   8.364490   0.000016   1.078090
                                CHANNELS 3 Zrotation Xrotation Yrotation
                                JOINT LeftFinger21
                                {
                                    OFFSET   5.111620   0.000000   0.000000
                                    CHANNELS 3 Zrotation Xrotation Yrotation
                                    JOINT LeftFinger22
                                    {
                                        OFFSET   2.788150   0.000012   0.000000
                                        CHANNELS 3 Zrotation Xrotation Yrotation
                                        End Site
                                        {
                                            OFFSET   2.727660   0.000000   0.000000
                                        }
                                    }
                                }
                            }
                            JOINT LeftFinger3
                            {
                                OFFSET   7.899780   0.000014  -1.078090
                                CHANNELS 3 Zrotation Xrotation Yrotation
                                JOINT LeftFinger31
                                {
                                    OFFSET   4.646930   0.000000   0.000000
                                    CHANNELS 3 Zrotation Xrotation Yrotation
                                    JOINT LeftFinger32
                                    {
                                        OFFSET   2.323470   0.000000   0.000000
                                        CHANNELS 3 Zrotation Xrotation Yrotation
                                        End Site
                                        {
                                            OFFSET   2.273050   0.000000   0.000000
                                        }
                                    }
                                }
                            }
                            JOINT LeftFinger4
                            {
                                OFFSET   7.435090   0.000000  -3.252850
                                CHANNELS 3 Zrotation Xrotation Yrotation
                                JOINT LeftFinger41
                                {
                                    OFFSET   3.717550   0.000000   0.000000
                                    CHANNELS 3 Zrotation Xrotation Yrotation
                                    JOINT LeftFinger42
                                    {
                                        OFFSET   1.858770   0.000000   0.000000
                                        CHANNELS 3 Zrotation Xrotation Yrotation
                                        End Site
                                        {
                                            OFFSET   1.818440   0.000000   0.000000
                                        }
                                    }
                                }
                            }
                        }
                    }
                }
            }
            JOINT RightCollar
            {
                OFFSET  -3.911900  19.017000  -0.467063
                CHANNELS 3 Zrotation Xrotation Yrotation
                JOINT RightShoulder
                {
                    OFFSET -10.383700   0.000023   0.000000
                    CHANNELS 3 Zrotation Xrotation Yrotation
                    JOINT RightElbow
                    {
                        OFFSET -26.662100   0.001246   0.001011
                        CHANNELS 3 Zrotation Xrotation Yrotation
                        JOINT RightWrist
                        {
                            OFFSET -28.869000  -0.000026  -0.000078
                            CHANNELS 3 Zrotation Xrotation Yrotation
                            JOINT RightFinger0
                            {
                                OFFSET  -2.044660  -2.323490   3.252850
                                CHANNELS 3 Zrotation Xrotation Yrotation
                                JOINT RightFinger01
                                {
                                    OFFSET  -3.088130   0.000000   0.000000
                                    CHANNELS 3 Zrotation Xrotation Yrotation
                                    JOINT RightFinger02
                                    {
                                        OFFSET  -2.639460   0.000000   0.000000
                                        CHANNELS 3 Zrotation Xrotation Yrotation
                                        End Site
                                        {
                                            OFFSET  -2.582190   0.000000   0.000000
                                        }
                                    }
                                }
                            }
                            JOINT RightFinger1
                            {
                                OFFSET  -8.364480   0.000000   3.252850
                                CHANNELS 3 Zrotation Xrotation Yrotation
                                JOINT RightFinger11
                                {
                                    OFFSET  -4.646920   0.000000   0.000000
                                    CHANNELS 3 Zrotation Xrotation Yrotation
                                    JOINT RightFinger12
                                    {
                                        OFFSET  -2.323470   0.000000   0.000000
                                        CHANNELS 3 Zrotation Xrotation Yrotation
                                        End Site
                                        {
                                            OFFSET  -2.273050   0.000000   0.000000
                                        }
                                    }
                                }
                            }
                            JOINT RightFinger2
                            {
                                OFFSET  -8.364480   0.000000   1.078090
                                CHANNELS 3 Zrotation Xrotation Yrotation
                                JOINT RightFinger21
                                {
                                    OFFSET  -5.111620   0.000000   0.000000
                                    CHANNELS 3 Zrotation Xrotation Yrotation
                                    JOINT RightFinger22
                                    {
                                        OFFSET  -2.788160   0.000000   0.000000
                                        CHANNELS 3 Zrotation Xrotation Yrotation
                                        End Site
                                        {
                                            OFFSET  -2.727660   0.000000   0.000000
                                        }
                                    }
                                }
                            }
                            JOINT RightFinger3
                            {
                                OFFSET  -7.899780   0.000000  -1.078090
                                CHANNELS 3 Zrotation Xrotation Yrotation
                                JOINT RightFinger31
                                {
                                    OFFSET  -4.646930   0.000000   0.000000
                                    CHANNELS 3 Zrotation Xrotation Yrotation
                                    JOINT RightFinger32
                                    {
                                        OFFSET  -2.323470   0.000000   0.000000
                                        CHANNELS 3 Zrotation Xrotation Yrotation
                                        End Site
                                        {
                                            OFFSET  -2.273050   0.000000   0.000000
                                        }
                                    }
                                }
                            }
                            JOINT RightFinger4
                            {
                                OFFSET  -7.435090   0.000000  -3.252850
                                CHANNELS 3 Zrotation Xrotation Yrotation
                                JOINT RightFinger41
                                {
                                    OFFSET  -3.717550   0.000000   0.000000
                                    CHANNELS 3 Zrotation Xrotation Yrotation
                                    JOINT RightFinger42
                                    {
                                        OFFSET  -1.858760   0.000000   0.000000
                                        CHANNELS 3 Zrotation Xrotation Yrotation
                                        End Site
                                        {
                                            OFFSET  -1.818440   0.000000   0.000000
                                        }
                                    }
                                }
                            }
                        }
                    }
                }
            }
        }
    }
    JOINT LeftHip
    {
        OFFSET   9.783010   0.000000   0.000000
        CHANNELS 3 Zrotation Xrotation Yrotation
        JOINT LeftKnee
        {
            OFFSET   0.000073 -41.789100   0.001749
            CHANNELS 3 Zrotation Xrotation Yrotation
            JOINT LeftAnkle
            {
                OFFSET   0.000111 -41.133200  -0.000179
                CHANNELS 3 Zrotation Xrotation Yrotation
                JOINT LeftToe
                {
                    OFFSET   0.000000  -6.358960  14.674500
                    CHANNELS 3 Zrotation Xrotation Yrotation
                    End Site
                    {
                        OFFSET   0.000000   0.000000   3.913200
                    }
                }
            }
        }
    }
    JOINT RightHip
    {
        OFFSET  -9.783010   0.000000   0.000000
        CHANNELS 3 Zrotation Xrotation Yrotation
        JOINT RightKnee
        {
            OFFSET   0.000424 -41.789200   0.005205
            CHANNELS 3 Zrotation Xrotation Yrotation
            JOINT RightAnkle
            {
                OFFSET   0.000000 -41.133200  -0.000155
                CHANNELS 3 Zrotation Xrotation Yrotation
                JOINT RightToe
                {
                    OFFSET   0.000000  -6.358960  14.674500
                    CHANNELS 3 Zrotation Xrotation Yrotation
                    End Site
                    {
                        OFFSET   0.000000   0.000000   3.913200
                    }
                }
            }
        }
    }
}
MOTION
Frames: 4
Frame Time:   0.016667
 -0.735194  89.582500   1.053990  -2.682550 -10.350200  -0.755946   0.234593   6.303440  -0.394694   0.517913  12.605100  -0.823080   2.089640  -1.553710   0.063544   3.429880  -3.137910   5.585930  -2.873690  -0.317458   2.660740 -73.964400  16.191200  -5.087600  -0.202028   3.028420 -19.044300  15.273400  -3.091430   0.287778  40.940500  34.122700 -50.428700 -31.522700  -0.001321  -0.000747 -10.762500   0.000841   0.006168 -33.612400   8.275780 -12.218300 -28.227100   0.000719   0.013219 -19.759000   0.000636  -0.008671 -29.240200   0.549933  -0.997359 -43.867300  -0.006338   0.011787 -29.215600   0.001124  -0.014566 -28.783000   0.541578  -1.001940 -41.617000   0.004162  -0.002351 -27.716900  -0.010971   0.001590 -35.398000   0.145224  -0.204390 -53.097400   0.005410  -0.001277 -35.362900   0.001605   0.000716  10.530500   0.781918   5.673300  68.590000  11.160500  -3.367600  -4.356820   0.564598  18.777500 -14.015500  -4.316510   3.316560 -39.714000  30.400500  64.447900  27.233800   0.001586  -0.000751   8.616910   0.001796   0.000438  49.599600  11.283800   9.457490  41.347400   0.002737  -0.000153  31.010500   0.004784   0.011826  44.372900   4.772560   4.844530  54.451600  -0.002122  -0.003219  38.567600   0.004364   0.002835  42.032700   2.625220   2.898610  54.414700   0.006794  -0.001138  37.905900   0.002337  -0.000622  53.656800  -6.014810  -4.420310  80.839000   0.005026   0.002660  53.835900   0.003796  -0.002057   1.782820  12.018200  -0.759516   0.647163   0.086192   7.781040  -0.360247  -2.840200  -0.998669   0.000000   0.000000   0.000000   5.017330  11.088400  -3.736740  -1.248110   2.633000 -16.083600  -1.360560  -4.580380   3.225160   0.000000   0.000000   0.000000
 -0.735186  89.582600   1.071100  -2.684470 -10.367900  -0.765330   0.234388   6.309690  -0.393340   0.517404  12.617600  -0.820368   2.089750  -1.562670   0.063536   3.430950  -3.156160   5.592730  -2.878470  -0.332649   2.647910 -73.959600  16.214700  -5.098140  -0.193066   3.027950 -19.042300  15.273500  -3.107790   0.287790  40.938900  34.123000 -50.429000 -31.522800  -0.001321  -0.000742 -10.762500   0.000842   0.006170 -33.629600   8.295680 -12.236900 -28.244200   0.000721   0.013222 -19.771000   0.000636  -0.008672 -29.249900   0.550049  -0.994752 -43.881800  -0.006338   0.011786 -29.225300   0.001122  -0.014565 -28.783100   0.541709  -0.999347 -41.650600   0.004162  -0.002354 -27.739300  -0.010971   0.001592 -35.419400   0.140142  -0.197094 -53.129400   0.005411  -0.001273 -35.384200   0.001605   0.000715  10.524400   0.761635   5.690800  68.584800  11.175600  -3.363620  -4.371670   0.576606  18.784900 -14.014700  -4.336820   3.311840 -39.709700  30.406600  64.455300  27.249600   0.001570  -0.000723   8.624810   0.001790   0.000435  49.626000  11.284000   9.447380  41.368400   0.002733  -0.000194  31.026200   0.004761   0.011844  44.392100   4.772550   4.844410  54.451600  -0.002125  -0.003222  38.567600   0.004360   0.002835  42.049400   2.625180   2.898460  54.414700   0.006791  -0.001149  37.905900   0.002333  -0.000618  53.656800  -6.014770  -4.420300  80.839300   0.005029   0.002653  53.835900   0.003782  -0.002055   1.783170  12.041400  -0.759667   0.646658   0.095522   7.780560  -0.360874  -2.861140  -0.994256   0.000000   0.000000  -0.000000   5.016280  11.141900  -3.745310  -1.239580   2.584890 -16.091800  -1.359320  -4.568640   3.249400   0.000000   0.000000   0.000000
 -0.735130  89.582600   1.099610  -2.687680 -10.400100  -0.780791   0.233733   6.321750  -0.390627   0.515901  12.641700  -0.814901   2.089860  -1.578350   0.063518   3.432590  -3.187930   5.608680  -2.887370  -0.358315   2.627000 -73.951800  16.253000  -5.115550  -0.179212   3.027470 -19.040300  15.273600  -3.130840   0.287847  40.936200  34.125100 -50.430700 -31.522900  -0.001322  -0.000736 -10.762600   0.000845   0.006176 -33.655500   8.315570 -12.255500 -28.268000   0.000722   0.013225 -19.787600   0.000637  -0.008674 -29.264000   0.550165  -0.989922 -43.903000  -0.006338   0.011785 -29.239400   0.001119  -0.014564 -28.783100   0.541840  -0.994540 -41.696300   0.004163  -0.002359 -27.769700  -0.010971   0.001594 -35.448900   0.133125  -0.187018 -53.173600   0.005414  -0.001270 -35.413600   0.001606   0.000715  10.512800   0.728919   5.722360  68.573400  11.208200  -3.350580  -4.388160   0.588612  18.792200 -14.014000  -4.357140   3.304610 -39.703000  30.421000  64.473000  27.279400   0.001523  -0.000680   8.639700   0.001768   0.000425  49.658600  11.284200   9.434890  41.394200   0.002717  -0.000287  31.045600   0.004707   0.011885  44.414400   4.772530   4.844290  54.451600  -0.002130  -0.003232  38.567600   0.004352   0.002838  42.070800   2.625100   2.898310  54.414600   0.006779  -0.001178  37.905900   0.002323  -0.000611  53.656800  -6.014720  -4.420260  80.839700   0.005037   0.002638  53.835900   0.003746  -0.002049   1.783990  12.092700  -0.759897   0.646153   0.104851   7.780090  -0.361389  -2.882090  -0.987686  -0.000000   0.000000  -0.000000   5.012770  11.230400  -3.761080  -1.223980   2.510730 -16.099700  -1.357480  -4.551110   3.287550   0.000000   0.000000   0.000000
 -0.734281  89.582600   1.122490  -2.693620 -10.430900  -0.792787   0.232680   6.334640  -0.387298   0.513511  12.667500  -0.808147   2.089070  -1.592560   0.063495   3.433310  -3.216380   5.630270  -2.896960  -0.380347   2.607510 -73.946800  16.279600  -5.127230  -0.169577   3.030720 -19.048400  15.268800  -3.139710   0.290469  40.937300  34.135100 -50.438100 -31.523000  -0.001325  -0.000741 -10.762600   0.000850   0.006182 -33.666300   8.313510 -12.249700 -28.276000   0.000715   0.013223 -19.793200   0.000640  -0.008669 -29.269900   0.549950  -0.984598 -43.911900  -0.006339   0.011786 -29.245300   0.001118  -0.014564 -28.783200   0.541581  -0.989241 -41.708300   0.004160  -0.002360 -27.777700  -0.010972   0.001594 -35.457600   0.131010  -0.183971 -53.186700   0.005420  -0.001270 -35.422300   0.001606   0.000714  10.499700   0.706463   5.751390  68.559200  11.250200  -3.323740  -4.387890   0.583024  18.778300 -14.009600  -4.355900   3.299380 -39.693000  30.444900  64.498200  27.319500   0.001442  -0.000664   8.659760   0.001722   0.000406  49.665900  11.284200   9.432120  41.399900   0.002684  -0.000418  31.049900   0.004628   0.011946  44.418000   4.772490   4.844320  54.451700  -0.002136  -0.003249  38.568100   0.004343   0.002845  42.076300   2.625000   2.898350  54.414500   0.006754  -0.001223  37.906800   0.002306  -0.000601  53.656100  -6.014670  -4.420210  80.839900   0.005049   0.002619  53.835200   0.003687  -0.002041   1.788560  12.171200  -0.760009   0.644638   0.051557   7.783320  -0.357093  -2.870340  -0.984223  -0.000000   0.000000  -0.000000   5.006060  11.299700  -3.775590  -1.208930   2.463600 -16.098500  -1.357280  -4.541370   3.313580  -0.000000   0.000000   0.000000
